<?xml version="1.0" encoding="utf-8"?>
<!-- Generator: Adobe Illustrator 25.2.1, SVG Export Plug-In . SVG Version: 6.00 Build 0)  -->
<svg version="1.1" id="Layer_1" xmlns="http://www.w3.org/2000/svg" xmlns:xlink="http://www.w3.org/1999/xlink" x="0px" y="0px"
	 viewBox="0 0 90.7 90.7" style="enable-background:new 0 0 90.7 90.7;" xml:space="preserve">
<style type="text/css">
	.st0{fill:#FF1018;}
</style>
<g>
	<g id="bg">
		<path d="M44.3,28.4c-0.7,0-1.4-0.3-1.9-0.8L31.1,16.3c-0.5-0.5-0.8-1.2-0.8-1.9c0-0.7,0.3-1.4,0.8-1.9L42.4,1.3
			c0.5-0.5,1.2-0.8,1.9-0.8c0.7,0,1.4,0.3,1.9,0.8l11.2,11.2c0.5,0.5,0.8,1.2,0.8,1.9c0,0.7-0.3,1.4-0.8,1.9L46.2,27.6
			C45.7,28.1,45,28.4,44.3,28.4z"/>
		<path d="M44.3,1c-0.6,0-1.2,0.2-1.6,0.7L31.5,12.9c-0.4,0.4-0.7,1-0.7,1.6c0,0.6,0.2,1.2,0.7,1.6l11.2,11.2c0.4,0.4,1,0.7,1.6,0.7
			s1.2-0.2,1.6-0.7L57.1,16c0.4-0.4,0.7-1,0.7-1.6c0-0.6-0.2-1.2-0.7-1.6L45.9,1.6C45.4,1.2,44.9,1,44.3,1 M44.3,0
			c0.8,0,1.6,0.3,2.2,0.9l11.2,11.2c1.2,1.2,1.2,3.3,0,4.5L46.5,27.9c-0.6,0.6-1.4,0.9-2.2,0.9c-0.8,0-1.6-0.3-2.2-0.9L30.8,16.7
			c-1.2-1.2-1.2-3.3,0-4.5L42,0.9C42.7,0.3,43.5,0,44.3,0z"/>
	</g>
	<path id="_" class="st0" d="M42.9,11.5v-0.7h2.7v0.7H42.9z M41,11.5h-0.3c-0.7,0-1.2,0.5-1.2,1.2v4.4c0,0.7,0.5,1.2,1.2,1.2H41
		V11.5z M47,11.5h-0.7v-0.9c0-0.3-0.2-0.5-0.5-0.5h-3.1c-0.3,0-0.5,0.2-0.5,0.5v0.9h-0.7v6.8H47L47,11.5z M49.1,12.7
		c0-0.7-0.5-1.2-1.2-1.2h-0.3v6.8h0.3c0.7,0,1.2-0.5,1.2-1.2V12.7z"/>
</g>
</svg>
