<?xml version="1.0" encoding="utf-8"?>
<!-- Generator: Adobe Illustrator 25.2.1, SVG Export Plug-In . SVG Version: 6.00 Build 0)  -->
<svg version="1.1" id="Layer_1" xmlns="http://www.w3.org/2000/svg" xmlns:xlink="http://www.w3.org/1999/xlink" x="0px" y="0px"
	 viewBox="0 0 25.7 25.7" style="enable-background:new 0 0 25.7 25.7;" xml:space="preserve">
<style type="text/css">
	.st0{fill:#E23A47;}
</style>
<path id="_" class="st0" d="M15,7c0-0.3-0.2-0.5-0.5-0.5c0,0,0,0,0,0h-1.1c-0.3,0-0.5,0.2-0.5,0.5c0,0,0,0,0,0v5.9H9.1
	c-0.3,0-0.5,0.2-0.5,0.5c0,0,0,0,0,0v1.1c0,0.3,0.2,0.5,0.5,0.5c0,0,0,0,0,0h5.4c0.3,0,0.5-0.2,0.5-0.5c0,0,0,0,0,0L15,7z M22,12.9
	c0,5-4.1,9.1-9.1,9.1c-5,0-9.1-4.1-9.1-9.1s4.1-9.1,9.1-9.1l0,0C17.9,3.8,22,7.8,22,12.9L22,12.9z M25.7,12.9C25.7,5.8,20,0,12.9,0
	C5.8,0,0,5.8,0,12.9C0,20,5.8,25.7,12.9,25.7c0,0,0,0,0,0C20,25.7,25.7,20,25.7,12.9L25.7,12.9z"/>
</svg>
