<?xml version="1.0" encoding="utf-8"?>
<!-- Generator: Adobe Illustrator 25.2.1, SVG Export Plug-In . SVG Version: 6.00 Build 0)  -->
<svg version="1.1" id="Layer_1" xmlns="http://www.w3.org/2000/svg" xmlns:xlink="http://www.w3.org/1999/xlink" x="0px" y="0px"
	 viewBox="0 0 34 34" style="enable-background:new 0 0 34 34;" xml:space="preserve">
<style type="text/css">
	.st0{fill:#FFFFFF;}
	.st1{fill:#ED1A3C;}
</style>
<path class="st0" d="M17,33c-1.6,0-3.1-0.6-4.3-1.8l-10-10c-2.4-2.4-2.4-6.2,0-8.5l10-10C13.9,1.6,15.4,1,17,1
	c1.6,0,3.1,0.6,4.3,1.8l10,10c2.4,2.4,2.4,6.2,0,8.5l-10,10C20.1,32.4,18.6,33,17,33z"/>
<path class="st1" d="M17,2c-1.3,0-2.6,0.5-3.6,1.5l-10,10c-2,2-2,5.2,0,7.1l10,10c1,1,2.2,1.5,3.6,1.5s2.6-0.5,3.6-1.5l10-10
	c2-2,2-5.2,0-7.1l-10-10C19.6,2.5,18.3,2,17,2 M17,0c1.8,0,3.6,0.7,5,2.1l10,10c2.8,2.8,2.8,7.2,0,10l-10,10c-1.4,1.4-3.2,2.1-5,2.1
	c-1.8,0-3.6-0.7-5-2.1l-10-10c-2.8-2.8-2.8-7.2,0-10l10-10C13.4,0.7,15.2,0,17,0z"/>
<path id="_" class="st1" d="M24,15c-0.2,0.2-0.5,0.4-0.7,0.6c-1.2,0.8-2.4,1.6-3.6,2.5c-0.6,0.5-1.4,0.9-2.2,1h0
	c-0.8-0.1-1.6-0.5-2.2-1c-1.2-0.9-2.4-1.7-3.6-2.5c-0.3-0.2-0.5-0.4-0.7-0.6v5.8c0,0.6,0.5,1.2,1.2,1.2h10.7c0.6,0,1.2-0.5,1.2-1.2
	L24,15z M24,12.9c0-0.6-0.5-1.2-1.2-1.2H12.2c-0.6,0-1.2,0.5-1.2,1.2c0,0,0,0.1,0,0.1c0.2,0.8,0.6,1.4,1.2,1.8
	c1.1,0.8,2.3,1.6,3.4,2.4c0.5,0.3,1.3,1,1.9,1h0c0.6,0,1.4-0.7,1.9-1c1.1-0.8,2.3-1.6,3.4-2.4C23.5,14.4,23.9,13.7,24,12.9L24,12.9z
	"/>
</svg>
