<?xml version="1.0" encoding="UTF-8"?>
<svg xmlns="http://www.w3.org/2000/svg" xmlns:xlink="http://www.w3.org/1999/xlink" width="5184pt" height="2592.000001pt" viewBox="0 0 5184 2592.000001" version="1.2">
<defs>
<clipPath id="clip1">
  <path d="M 2383.125 1028 L 2910.171875 1028 L 2910.171875 1578.964844 L 2383.125 1578.964844 Z M 2383.125 1028 "/>
</clipPath>
</defs>
<g id="surface1">
<g clip-path="url(#clip1)" clip-rule="nonzero">
<path style=" stroke:none;fill-rule:nonzero;fill:rgb(0%,0%,0%);fill-opacity:1;" d="M 2580.464844 1028.648438 C 2580.46875 1028.648438 2580.472656 1028.644531 2580.480469 1028.644531 C 2585.691406 1027.175781 2590.835938 1029.886719 2595.242188 1032.378906 C 2598.054688 1033.972656 2600.746094 1035.773438 2603.421875 1037.582031 C 2603.523438 1037.648438 2603.621094 1037.71875 2603.722656 1037.785156 C 2612.058594 1043.574219 2620.203125 1049.644531 2628.523438 1055.460938 C 2642.050781 1064.941406 2655.628906 1074.34375 2669.160156 1083.816406 C 2682.351562 1093.046875 2695.535156 1102.296875 2708.511719 1111.839844 C 2721.453125 1121.363281 2734.238281 1131.109375 2746.703125 1141.253906 C 2758.902344 1151.179688 2770.710938 1161.585938 2782.109375 1172.417969 C 2793.214844 1182.96875 2803.917969 1193.933594 2814.238281 1205.25 C 2824.558594 1216.570312 2834.492188 1228.242188 2844.058594 1240.203125 C 2847.117188 1244.03125 2850.136719 1247.890625 2853.125 1251.777344 C 2867.621094 1270.722656 2881.039062 1290.492188 2893.273438 1310.96875 C 2896.5 1316.359375 2899.617188 1321.816406 2902.628906 1327.332031 C 2905 1331.789062 2907.414062 1336.234375 2909.34375 1340.90625 C 2909.769531 1341.976562 2910.253906 1343.078125 2910.152344 1344.261719 C 2908.996094 1343.867188 2908.242188 1342.855469 2907.441406 1342.007812 C 2904.085938 1338.144531 2901.074219 1334.003906 2898.03125 1329.898438 C 2883.777344 1310.367188 2870.324219 1290.269531 2855.984375 1270.800781 C 2846.628906 1258.039062 2836.976562 1245.398438 2826.566406 1233.476562 C 2816.5 1221.953125 2805.855469 1210.933594 2794.683594 1200.476562 C 2783.046875 1189.585938 2770.800781 1179.347656 2758.363281 1169.394531 C 2753.664062 1165.632812 2748.925781 1161.917969 2744.164062 1158.238281 C 2731.28125 1148.296875 2718.308594 1138.472656 2705.195312 1128.84375 C 2691.8125 1119.011719 2678.425781 1109.179688 2665.039062 1099.347656 C 2658.886719 1094.734375 2652.558594 1090.371094 2646.359375 1085.8125 C 2637.6875 1079.503906 2629.019531 1073.191406 2620.207031 1067.089844 C 2617.816406 1065.46875 2615.414062 1063.867188 2612.886719 1062.476562 C 2612.1875 1062.070312 2611.394531 1061.871094 2610.59375 1061.824219 C 2610.644531 1063.214844 2611.53125 1064.347656 2612.203125 1065.503906 C 2614.613281 1069.246094 2617.226562 1072.855469 2619.675781 1076.570312 C 2626.507812 1086.796875 2632.71875 1097.566406 2636.566406 1109.296875 C 2639.523438 1118.253906 2641.476562 1127.820312 2640.1875 1137.265625 C 2639.214844 1144.636719 2634.890625 1151.449219 2628.679688 1155.519531 C 2627.71875 1156.132812 2626.804688 1156.824219 2625.816406 1157.390625 C 2624.398438 1158.042969 2623.207031 1159.160156 2621.644531 1159.488281 C 2620.664062 1159.996094 2619.6875 1160.523438 2618.621094 1160.824219 C 2618.320312 1160.917969 2618.023438 1161.015625 2617.730469 1161.117188 C 2617.429688 1161.210938 2617.136719 1161.308594 2616.84375 1161.410156 C 2616.539062 1161.503906 2616.242188 1161.605469 2615.945312 1161.710938 C 2615.640625 1161.808594 2615.339844 1161.902344 2615.042969 1162.003906 C 2614.734375 1162.101562 2614.433594 1162.21875 2614.144531 1162.355469 C 2614.003906 1162.375 2613.726562 1162.414062 2613.585938 1162.4375 C 2612.945312 1162.835938 2612.226562 1163.195312 2611.441406 1163.101562 C 2610.050781 1163.789062 2608.496094 1164.070312 2606.972656 1164.3125 C 2605.523438 1164.789062 2604.003906 1165.078125 2602.488281 1165.21875 C 2602.015625 1165.4375 2601.5 1165.460938 2600.996094 1165.507812 C 2598.574219 1166.003906 2596.113281 1166.164062 2593.6875 1166.648438 C 2592.375 1166.578125 2591.136719 1167.097656 2589.820312 1166.957031 C 2588.855469 1167.300781 2587.835938 1167.316406 2586.828125 1167.289062 C 2585.804688 1167.609375 2584.730469 1167.632812 2583.667969 1167.523438 C 2582.914062 1167.996094 2581.980469 1167.839844 2581.140625 1167.992188 C 2568.929688 1169.164062 2556.671875 1170.863281 2545 1174.761719 C 2539.960938 1176.417969 2535.027344 1178.371094 2530.191406 1180.539062 C 2527.769531 1181.625 2525.375 1182.765625 2523.003906 1183.949219 C 2513.039062 1188.921875 2503.488281 1194.796875 2494.453125 1201.304688 C 2490.058594 1204.464844 2485.785156 1207.796875 2481.644531 1211.285156 C 2477.472656 1214.800781 2473.601562 1218.648438 2469.5 1222.238281 C 2461.34375 1230.054688 2453.695312 1238.398438 2446.667969 1247.246094 C 2443.140625 1251.664062 2439.800781 1256.226562 2436.789062 1261.011719 C 2433.769531 1265.894531 2431.128906 1271.078125 2429.597656 1276.632812 C 2428.289062 1281.394531 2427.777344 1286.414062 2428.429688 1291.324219 C 2429.386719 1299.128906 2431.960938 1306.621094 2433.253906 1314.367188 C 2434.710938 1322.59375 2434.644531 1331.203125 2432.132812 1339.226562 C 2429.929688 1346.46875 2426.601562 1353.316406 2422.957031 1359.9375 C 2419.632812 1366.011719 2415.960938 1371.882812 2412.296875 1377.757812 C 2409.738281 1381.910156 2407.054688 1386.011719 2404.933594 1390.410156 C 2404.023438 1392.539062 2402.890625 1394.800781 2403.351562 1397.183594 C 2403.652344 1397.953125 2404.382812 1398.539062 2405.191406 1398.71875 C 2407.441406 1399.289062 2409.765625 1398.847656 2412.039062 1398.699219 C 2416.609375 1398.253906 2421.183594 1397.367188 2425.796875 1397.710938 C 2427.839844 1397.878906 2430.117188 1398.648438 2431.089844 1400.613281 C 2432.148438 1402.867188 2431.5625 1405.445312 2430.933594 1407.734375 C 2429.566406 1412.113281 2427.289062 1416.121094 2425.128906 1420.140625 C 2421.90625 1425.988281 2418.449219 1431.714844 2415.390625 1437.65625 C 2414.125 1440.160156 2412.910156 1442.714844 2412.105469 1445.414062 C 2411.335938 1448.078125 2411.105469 1451.023438 2412.195312 1453.636719 C 2413.394531 1456.492188 2415.578125 1458.777344 2417.78125 1460.898438 C 2422.027344 1464.816406 2426.738281 1468.195312 2431.5625 1471.367188 C 2441.917969 1478.082031 2452.851562 1483.910156 2464.15625 1488.863281 C 2476.507812 1494.179688 2489.53125 1498.425781 2503.019531 1499.382812 C 2517.796875 1500.53125 2532.585938 1497.554688 2546.554688 1492.882812 C 2552.511719 1490.953125 2558.292969 1488.53125 2564.101562 1486.199219 C 2557.425781 1477.503906 2550.382812 1469.089844 2543.796875 1460.332031 C 2542.78125 1458.808594 2541.425781 1457.40625 2541.011719 1455.578125 C 2542.226562 1455.699219 2543.175781 1456.527344 2544.144531 1457.191406 C 2547.761719 1459.910156 2551.09375 1462.988281 2554.351562 1466.125 C 2560.007812 1471.609375 2565.429688 1477.335938 2570.59375 1483.285156 C 2570.726562 1483.441406 2574.214844 1481.601562 2574.585938 1481.425781 C 2575.945312 1480.777344 2577.300781 1480.121094 2578.652344 1479.453125 C 2584.132812 1476.746094 2589.582031 1473.945312 2594.855469 1470.847656 C 2597.515625 1469.28125 2600.453125 1467.859375 2602.925781 1466.007812 C 2602.769531 1466.105469 2600.742188 1464.5 2600.496094 1464.332031 C 2599.652344 1463.75 2598.804688 1463.175781 2597.953125 1462.601562 C 2596.257812 1461.453125 2594.550781 1460.316406 2592.84375 1459.183594 C 2589.460938 1456.949219 2586.054688 1454.738281 2582.648438 1452.535156 C 2579.234375 1450.328125 2575.820312 1448.121094 2572.410156 1445.914062 C 2568.625 1443.46875 2564.644531 1441.058594 2561.027344 1438.328125 C 2559.964844 1437.527344 2558.554688 1436.6875 2557.972656 1435.4375 C 2560.296875 1435.710938 2562.375 1436.910156 2564.507812 1437.792969 C 2571.796875 1441.183594 2578.972656 1444.816406 2586.035156 1448.652344 C 2593.160156 1452.523438 2600.179688 1456.621094 2607.113281 1460.824219 C 2607.753906 1461.207031 2608.398438 1461.59375 2608.980469 1462.066406 C 2613.507812 1459.445312 2617.695312 1456.257812 2622.222656 1453.625 C 2622.890625 1453.21875 2623.625 1452.898438 2624.425781 1452.914062 C 2624.277344 1454.113281 2623.429688 1455.035156 2622.753906 1455.988281 C 2620.808594 1458.472656 2618.652344 1460.792969 2616.414062 1463.019531 C 2615.671875 1463.785156 2614.839844 1464.476562 2614.210938 1465.351562 C 2614.523438 1464.925781 2622.171875 1470.480469 2622.664062 1470.820312 C 2626.414062 1473.378906 2630.066406 1476.070312 2633.738281 1478.734375 C 2639.171875 1482.679688 2644.574219 1486.703125 2649.765625 1490.960938 C 2655.925781 1496.011719 2662.039062 1501.105469 2667.96875 1506.429688 C 2673.800781 1511.671875 2679.496094 1517.078125 2685.097656 1522.566406 C 2690.808594 1528.160156 2696.414062 1533.859375 2701.90625 1539.667969 C 2707.375 1545.453125 2712.808594 1551.269531 2718.050781 1557.257812 C 2720.367188 1559.90625 2722.65625 1562.582031 2724.910156 1565.28125 C 2725.984375 1566.566406 2727.046875 1567.855469 2728.089844 1569.167969 C 2728.617188 1569.832031 2729.140625 1570.5 2729.660156 1571.171875 C 2729.933594 1571.523438 2730.203125 1571.878906 2730.472656 1572.230469 C 2730.617188 1572.417969 2731.207031 1572.980469 2731.207031 1573.199219 C 2732.101562 1574.578125 2733.351562 1575.847656 2733.632812 1577.523438 C 2731.808594 1576.855469 2730.441406 1575.394531 2728.9375 1574.226562 C 2720.46875 1566.875 2712.410156 1559.078125 2704.199219 1551.445312 C 2687.882812 1536.125 2671.539062 1520.816406 2654.597656 1506.1875 C 2639.847656 1493.453125 2624.550781 1481.339844 2608.664062 1470.058594 C 2598.882812 1478.15625 2588.003906 1484.933594 2576.410156 1490.121094 C 2591.101562 1507.984375 2603.492188 1527.613281 2614.707031 1547.804688 C 2619.3125 1556.234375 2623.863281 1564.722656 2627.6875 1573.542969 C 2628.332031 1575.167969 2629.128906 1576.777344 2629.359375 1578.535156 C 2629.179688 1578.945312 2628.78125 1578.414062 2628.578125 1578.296875 C 2627.070312 1576.679688 2625.84375 1574.820312 2624.566406 1573.023438 C 2618.265625 1563.816406 2612.265625 1554.414062 2606.113281 1545.109375 C 2594.402344 1527.378906 2582.417969 1509.808594 2569.402344 1493.007812 C 2557.578125 1497.691406 2545.242188 1501.027344 2532.777344 1503.488281 C 2524.828125 1505.023438 2516.800781 1506.171875 2508.726562 1506.71875 C 2495.597656 1507.644531 2482.046875 1506.882812 2469.671875 1502.050781 C 2463.457031 1499.640625 2457.726562 1496.105469 2452.535156 1491.945312 C 2448.207031 1488.613281 2444.402344 1484.644531 2439.925781 1481.5 C 2436.15625 1478.824219 2431.65625 1477.5625 2427.464844 1475.722656 C 2421.832031 1473.367188 2416.578125 1470.09375 2412 1466.050781 C 2407.425781 1462.15625 2403.4375 1457.636719 2399.65625 1452.976562 C 2396.132812 1448.542969 2392.878906 1443.886719 2390.046875 1438.980469 C 2387.257812 1434.15625 2384.757812 1429.027344 2383.789062 1423.5 C 2383.136719 1419.996094 2383.535156 1416.359375 2384.707031 1413.011719 C 2386.535156 1407.933594 2389.707031 1403.507812 2392.558594 1398.972656 C 2398.992188 1389.261719 2404.113281 1378.734375 2408.390625 1367.914062 C 2411.234375 1360.734375 2413.664062 1353.382812 2415.523438 1345.890625 C 2417.414062 1338.320312 2418.511719 1330.5625 2418.871094 1322.777344 C 2419.503906 1311.792969 2419.050781 1300.742188 2420.503906 1289.8125 C 2421.90625 1278.582031 2425.304688 1267.5625 2430.546875 1257.53125 C 2435.660156 1248.398438 2441.878906 1240.089844 2449.207031 1232.617188 C 2453.234375 1228.503906 2457.515625 1224.648438 2461.933594 1220.964844 C 2479.894531 1206.0625 2499.59375 1193.476562 2518.882812 1180.402344 C 2527.039062 1174.796875 2535.332031 1169.265625 2542.460938 1162.359375 C 2544.035156 1160.71875 2545.550781 1159.027344 2546.960938 1157.246094 L 2546.464844 1157.238281 C 2546.59375 1157.226562 2546.851562 1157.199219 2546.980469 1157.1875 C 2552.683594 1149.753906 2555.15625 1140.496094 2556.859375 1131.441406 C 2554.621094 1129.96875 2552.585938 1128.203125 2550.269531 1126.847656 C 2545.144531 1123.847656 2540.144531 1120.664062 2534.949219 1117.78125 C 2524.421875 1111.949219 2513.585938 1106.648438 2502.75 1101.394531 C 2494.5 1097.390625 2486.261719 1093.359375 2477.78125 1089.871094 C 2475.09375 1088.769531 2468.96875 1085.953125 2467.546875 1090.078125 C 2466.5625 1092.953125 2466.941406 1096.042969 2467.019531 1099.027344 C 2467.269531 1101.3125 2467.609375 1103.589844 2467.960938 1105.863281 C 2468.515625 1109.015625 2469.191406 1112.140625 2469.960938 1115.246094 C 2470.375 1116.914062 2470.675781 1118.605469 2471.132812 1120.265625 C 2474.21875 1131.496094 2478.933594 1142.261719 2484.449219 1152.503906 C 2486.875 1157.007812 2489.417969 1161.457031 2492.085938 1165.828125 C 2492.386719 1166.328125 2492.691406 1166.832031 2493 1167.332031 C 2493.960938 1169.007812 2495.085938 1170.609375 2495.886719 1172.375 C 2495.871094 1172.519531 2495.84375 1172.8125 2495.828125 1172.957031 C 2495.851562 1172.730469 2494.621094 1171.691406 2494.433594 1171.476562 C 2493.914062 1170.894531 2493.429688 1170.289062 2492.929688 1169.691406 C 2491.898438 1168.460938 2491.03125 1167.050781 2490.121094 1165.714844 C 2488.148438 1162.816406 2485.949219 1159.957031 2484.230469 1156.914062 C 2482.460938 1153.789062 2480.601562 1150.722656 2478.886719 1147.566406 C 2477.46875 1144.941406 2476.054688 1142.25 2474.675781 1139.578125 C 2473.273438 1136.863281 2471.746094 1134.160156 2470.488281 1131.371094 C 2470.300781 1130.953125 2470.128906 1130.523438 2469.929688 1130.105469 C 2469.273438 1128.738281 2468.617188 1127.367188 2467.96875 1125.996094 C 2466.671875 1123.25 2465.386719 1120.5 2464.128906 1117.738281 C 2461.609375 1112.214844 2459.191406 1106.644531 2456.945312 1101.003906 C 2456.914062 1100.917969 2456.878906 1100.832031 2456.847656 1100.75 C 2456.132812 1098.957031 2455.4375 1097.160156 2454.75 1095.355469 C 2454.042969 1093.492188 2453.402344 1091.605469 2452.769531 1089.710938 C 2451.710938 1086.136719 2450.476562 1082.480469 2450.777344 1078.699219 C 2450.867188 1077.066406 2451.84375 1075.433594 2453.425781 1074.863281 C 2455.652344 1074.039062 2458.191406 1074.238281 2460.488281 1074.652344 C 2466.070312 1075.664062 2471.6875 1077.109375 2477.101562 1078.945312 C 2479.8125 1079.863281 2482.449219 1081.046875 2485.160156 1081.929688 C 2488.054688 1082.875 2490.933594 1083.890625 2493.789062 1084.945312 C 2493.960938 1085.007812 2494.132812 1085.074219 2494.304688 1085.136719 C 2499.964844 1087.246094 2505.539062 1089.460938 2511.121094 1091.773438 C 2522.457031 1096.46875 2533.699219 1101.359375 2544.957031 1106.25 C 2549.921875 1108.410156 2554.914062 1110.507812 2559.871094 1112.683594 C 2561.726562 1099.066406 2563.132812 1085.390625 2564.921875 1071.765625 C 2565.625 1066.410156 2566.6875 1061.097656 2567.390625 1055.746094 C 2567.785156 1052.742188 2568.515625 1049.792969 2569.300781 1046.871094 C 2570.054688 1044.082031 2570.699219 1041.28125 2571.867188 1038.632812 C 2573.207031 1035.59375 2574.820312 1032.492188 2577.476562 1030.410156 C 2578.34375 1029.726562 2579.390625 1028.957031 2580.460938 1028.652344 Z M 2580.464844 1028.648438 "/>
</g>
<path style=" stroke:none;fill-rule:nonzero;fill:rgb(0%,0%,0%);fill-opacity:1;" d="M 2503.898438 1285.472656 C 2507.414062 1285.363281 2510.929688 1285.375 2514.441406 1285.507812 C 2520.289062 1285.730469 2526.136719 1286.25 2531.9375 1287.019531 C 2534.886719 1287.410156 2537.828125 1287.871094 2540.753906 1288.40625 C 2542.25 1288.679688 2543.738281 1288.96875 2545.226562 1289.277344 C 2545.9375 1289.425781 2546.652344 1289.578125 2547.363281 1289.734375 C 2547.808594 1289.835938 2549.085938 1290.371094 2549.496094 1290.21875 C 2545.929688 1291.535156 2541.523438 1292.511719 2538.988281 1295.570312 C 2536.558594 1298.523438 2535.203125 1302.152344 2533.238281 1305.402344 C 2530.191406 1310.757812 2525.449219 1314.90625 2520.375 1318.289062 C 2516.132812 1321.089844 2511.566406 1323.4375 2506.742188 1325.054688 C 2503.011719 1326.261719 2499.03125 1327.078125 2495.101562 1326.574219 C 2492.191406 1326.230469 2489.425781 1324.910156 2487.308594 1322.890625 C 2484.550781 1320.367188 2482.597656 1317.140625 2480.660156 1313.984375 C 2477.632812 1309.035156 2474.535156 1304.09375 2470.738281 1299.691406 C 2469.710938 1298.394531 2468.53125 1297.1875 2467.800781 1295.683594 C 2465.566406 1290.902344 2475.453125 1289.09375 2478.417969 1288.476562 C 2486.804688 1286.734375 2495.339844 1285.738281 2503.898438 1285.472656 Z M 2503.898438 1285.472656 "/>
<path style=" stroke:none;fill-rule:nonzero;fill:rgb(0%,0%,0%);fill-opacity:1;" d="M 2560.117188 1417.164062 C 2561.125 1416.535156 2562.335938 1417.019531 2563.421875 1417.128906 C 2571.253906 1418.632812 2578.957031 1420.945312 2586.496094 1423.523438 C 2594.027344 1426.101562 2601.414062 1429.085938 2608.652344 1432.394531 C 2613.609375 1434.660156 2618.566406 1437.027344 2623.316406 1439.699219 C 2630.175781 1443.410156 2636.871094 1447.421875 2643.375 1451.71875 C 2650.070312 1456.140625 2656.570312 1460.859375 2662.941406 1465.730469 C 2666.414062 1468.378906 2669.863281 1471.0625 2673.242188 1473.828125 C 2682.273438 1481.191406 2691.195312 1488.722656 2699.457031 1496.953125 C 2700.796875 1498.449219 2702.507812 1499.761719 2703.265625 1501.675781 C 2701.511719 1501.375 2700.132812 1500.140625 2698.640625 1499.273438 C 2689.199219 1492.941406 2680.070312 1486.15625 2670.796875 1479.582031 C 2651.414062 1465.789062 2631.933594 1451.972656 2610.910156 1440.746094 C 2603.871094 1436.988281 2596.71875 1433.445312 2589.417969 1430.21875 C 2585.691406 1428.570312 2581.945312 1426.964844 2578.179688 1425.40625 C 2574.488281 1423.875 2570.667969 1422.542969 2567.046875 1420.863281 C 2566.15625 1420.449219 2565.238281 1420.097656 2564.359375 1419.65625 C 2562.882812 1418.941406 2561.355469 1418.265625 2560.117188 1417.164062 Z M 2560.117188 1417.164062 "/>
<path style="fill:none;stroke-width:1;stroke-linecap:round;stroke-linejoin:miter;stroke:rgb(100%,100%,100%);stroke-opacity:1;stroke-miterlimit:4;" d="M 3.500101 -0.000049985 L 90.512305 -0.000049985 " transform="matrix(14.992285,0,0,14.994215,926.83409,1220.180437)"/>
<path style="fill:none;stroke-width:1;stroke-linecap:butt;stroke-linejoin:round;stroke:rgb(100%,100%,100%);stroke-opacity:1;stroke-miterlimit:4;" d="M 0.50012 -0.000049985 L 2.00011 -1.500108 L 3.500101 -0.000049985 L 2.00011 1.500008 Z M 0.50012 -0.000049985 " transform="matrix(14.992285,0,0,14.994215,926.83409,1220.180437)"/>
<path style="fill:none;stroke-width:1;stroke-linecap:round;stroke-linejoin:miter;stroke:rgb(100%,100%,100%);stroke-opacity:1;stroke-miterlimit:4;" d="M 0.500001 -0.000049985 L 87.655021 -0.000049985 " transform="matrix(14.993444,0,0,14.994215,2997.92514,1220.180437)"/>
<path style="fill:none;stroke-width:1;stroke-linecap:butt;stroke-linejoin:round;stroke:rgb(100%,100%,100%);stroke-opacity:1;stroke-miterlimit:4;" d="M -0.49993 -0.000049985 L -2.000065 -1.500108 L -3.499939 -0.000049985 L -2.000065 1.500008 Z M -0.49993 -0.000049985 " transform="matrix(14.993444,0,0,14.994215,4364.651925,1220.180437)"/>
<path style="fill:none;stroke-width:1;stroke-linecap:round;stroke-linejoin:miter;stroke:rgb(100%,100%,100%);stroke-opacity:1;stroke-miterlimit:4;" d="M 3.499901 0.000111499 L 63.124749 0.000111499 " transform="matrix(14.988508,0,0,14.994215,1337.487026,1319.568641)"/>
<path style="fill:none;stroke-width:1;stroke-linecap:butt;stroke-linejoin:round;stroke:rgb(100%,100%,100%);stroke-opacity:1;stroke-miterlimit:4;" d="M 0.499946 0.000111499 L 2.000054 -1.499946 L 3.499901 0.000111499 L 2.000054 1.499909 Z M 0.499946 0.000111499 " transform="matrix(14.988508,0,0,14.994215,1337.487026,1319.568641)"/>
<path style="fill:none;stroke-width:1;stroke-linecap:round;stroke-linejoin:miter;stroke:rgb(100%,100%,100%);stroke-opacity:1;stroke-miterlimit:4;" d="M 0.499981 -0.0000718498 L 60.201348 -0.0000718498 " transform="matrix(14.99403,0,0,14.994215,2997.92514,1322.567484)"/>
<path style="fill:none;stroke-width:1;stroke-linecap:butt;stroke-linejoin:round;stroke:rgb(100%,100%,100%);stroke-opacity:1;stroke-miterlimit:4;" d="M -0.500014 -0.0000718498 L -2.000091 -1.50013 L -3.499906 -0.0000718498 L -2.000091 1.499986 Z M -0.500014 -0.0000718498 " transform="matrix(14.99403,0,0,14.994215,3953.063638,1322.567484)"/>
<path style="fill:none;stroke-width:1;stroke-linecap:round;stroke-linejoin:miter;stroke:rgb(100%,100%,100%);stroke-opacity:1;stroke-miterlimit:4;" d="M 0.499975 0.0000349446 L 35.400155 0.0000349446 " transform="matrix(14.994215,0,0,14.994215,2997.92514,1424.21432)"/>
<path style="fill:none;stroke-width:1;stroke-linecap:butt;stroke-linejoin:round;stroke:rgb(100%,100%,100%);stroke-opacity:1;stroke-miterlimit:4;" d="M -0.499995 0.0000349446 L -2.000053 -1.500023 L -3.500111 0.0000349446 L -2.000053 1.500093 Z M -0.499995 0.0000349446 " transform="matrix(14.994215,0,0,14.994215,3581.20407,1424.21432)"/>
<path style="fill:none;stroke-width:1;stroke-linecap:round;stroke-linejoin:miter;stroke:rgb(100%,100%,100%);stroke-opacity:1;stroke-miterlimit:4;" d="M 3.500005 0.0000253711 L 38.833796 0.0000253711 " transform="matrix(15.000469,0,0,14.994215,1701.713124,1413.71837)"/>
<path style="fill:none;stroke-width:1;stroke-linecap:butt;stroke-linejoin:round;stroke:rgb(100%,100%,100%);stroke-opacity:1;stroke-miterlimit:4;" d="M 0.500099 0.0000253711 L 2.000052 -1.500032 L 3.500005 0.0000253711 L 2.000052 1.500083 Z M 0.500099 0.0000253711 " transform="matrix(15.000469,0,0,14.994215,1701.713124,1413.71837)"/>
</g>
</svg>
