<svg xmlns="http://www.w3.org/2000/svg" viewBox="0 0 263.28 80.69"><defs><style>.cls-1{fill:#f3f2f3;}.cls-2{fill:#f5f4f5;}.cls-3{fill:#e13c49;}.cls-4{fill:#e13d4a;}.cls-5{fill:#e23e4b;}.cls-6{fill:#e2404c;}.cls-7{fill:#b8b1b7;}.cls-8{fill:#eceaec;}.cls-9{fill:#eeecee;}.cls-10{fill:#f0eef0;}.cls-11{fill:#ebe9ea;}.cls-12{fill:#fcf1f2;}.cls-13{fill:#f9dee0;}.cls-14{fill:#fdf6f6;}.cls-15{fill:#fbe9ea;}.cls-16{fill:#f4d5d7;}.cls-17{fill:#e2dfe1;}.cls-18{fill:#e8e5e7;}.cls-19{fill:#f8f7f8;}.cls-20{fill:#fcfcfc;}</style></defs><g id="Layer_2" data-name="Layer 2"><g id="Layer_1-2" data-name="Layer 1"><path class="cls-1" d="M89.7,23.43c0-4.85,0-9.71,0-14.56.06-5.27,2.65-8,7.82-7.95s10.55-.39,15.87.66c5.12,1,9.07,3.22,11.91,7.48,1.59,2.38,2.91,3.11,4.74,0,6.6-11.19,19.53-10.84,29.12-5.38,4.54,2.58,4.79,8.16.25,11.73-2.71,2.13-2.67,3.59-.31,5.47a15.92,15.92,0,0,1,6,10.42c.46,3,1.6,2.47,3.44.86,3.41-3,4.64-5.16.81-9.51-5.72-6.51-1.52-17.59,7-21,7.12-2.83,13.88-1.81,20.4,1.68,4.62,2.47,5.45,7.35,1.52,10.77-3.56,3.1-3.13,5.28.23,8,5,4.08,5.45,9.42,3.35,15.08a15.24,15.24,0,0,1-13.68,9.55c-8.39.24-16.26-.71-21.51-8.42-1.32-1.93-2.45-.83-3.52.35-8.17,9.08-19.55,10.79-29.94,4.51-5.51-3.34-6.09-8.74-1.2-13,1.34-1.16,2.56-1.95,1.59-3.92a9.43,9.43,0,0,0-4.43-4.73c-1.24-.55-1.64,1-1.92,1.92C124.68,31.45,119,34.89,111,35.37c-3.28.2-5.3,1.8-6.09,5.21-1.09,4.69-4,6.62-8.6,6.22-4.13-.37-6.41-3-6.55-7.92C89.59,33.74,89.7,28.58,89.7,23.43Z"/><path class="cls-2" d="M43.34,18.73c1.7-3.47,1-6.29,1.07-9,.21-6.38,2.57-9,8.33-8.86,5.4.1,7.65,2.73,7.67,9,0,4.71.06,9.42,0,14.13a13,13,0,0,0,1.25,5.53,3.78,3.78,0,0,0,3.94,2.27,3.22,3.22,0,0,0,3.17-2.59,23.8,23.8,0,0,0,1.45-7.29c-.08-4.71-.07-9.42,0-14.13C70.24,3.32,72.81.92,77.43.87c5.41-.06,7.75,1.85,7.81,6.68.09,7.35.29,14.72-.06,22.06-.36,7.63-4.79,12.73-11.55,15.9S60.1,48,53.91,44.15a17.75,17.75,0,0,1-8.65-12.67c-.16-1.11-.33-2.63-1.76-2.67-1.16,0-1.38,1.36-1.66,2.31C38.65,41.89,28.79,47,18.38,46.82c-3.7-.07-7.39,0-11.09,0-4.21,0-7.11-2.48-7.17-6.62Q-.12,23.85.12,7.51C.17,3.37,3.08.91,7.28.88c4.44,0,8.89-.27,13.3,0,8.76.62,15.94,4,19.91,12.38C41.23,14.87,42.1,16.38,43.34,18.73Z"/><path class="cls-3" d="M84.26,68.21a2.42,2.42,0,0,1,.27-.36c1.37-1.38,1.93-4.55,4.27-3.73s.69,3.62.89,5.54c.17,1.65-1.1,4.23.77,4.71s3.62-1.67,4.46-3.56a14.74,14.74,0,0,1,4.47-5.91c2.14-1.65,4.2-.84,6.16.16s.76,2.85.83,4.34a1.7,1.7,0,0,1-.08.44c-.27,1.65-1.59,3.87.18,4.79s2.55-1.9,4.12-2.58c1.38,2,.71,3.56-1,4.88s-3.44,2.65-5.46.67c-1-.93-1.63-.85-2.65-.16-2.18,1.46-4.43,1.83-6.29-.5-.8-1-1.36-.53-2.22-.15-6,2.69-6.39,2.44-6.72-4.3A13.33,13.33,0,0,0,85.86,71c-.91,2.12-1.64,3.77-2.33,5.43-.47,1.16-1.15,2.28-2.52,2s-1.3-1.78-1.31-2.92c0-1.31.14-2.63.25-4.38C78.27,72.29,78.16,74,77.3,75.2c-1.21,1.7-1.61,5.89-4.85,1.42-.77-1.05-2,.56-3,1-2.31,1-4.59,1.87-6-1.15-.92-2-1.74-.53-2.67-.15-2.63,1.08-5.16,4.12-8,.2-.79-1.08-1.45.32-2.1.74-1.24.81-2.52,1.87-4,1.1-1.78-.88-1.71-2.75-1.38-4.3.71-3.36-1.34-4.73-4.27-6.42-.15,3,.2,5.64-1.41,7.87-1.37,1.91-3,3.35-5.5,3s-3.8-2.14-4.29-4.47c-.7-3.41,0-6.53,2.84-8.71s5.8-2,8.71-.24c1.49.91,2.82,2.06,4.36,3.21a9.13,9.13,0,0,0,.49-1.12c.45-1.59,1-3.6,3-3.18,2.12.46.52,2.47.64,3.78a10.27,10.27,0,0,1-.25,2.18c-.18,1.65-1.6,4.36.18,4.67,2.62.44,2.08-2.77,2.87-4.5,1-2.13-.54-6.71,3.26-5.93,2.83.59.49,4.27.45,6.58,0,1.45-1.21,4,.77,4,2.28.07,5.06-1.18,5-4.43a33.13,33.13,0,0,1,4.15-16.49c1.31-2.41,3.07-5.86,6.11-4.6s1.53,4.9.88,7.49c-1.08,4.32-3.56,8-5.58,11.95-.87,1.68-2,3.36-1,5.38a.94.94,0,0,0,1.5.31c1.77-1.31,4.66-1.3,5-4.33a21.59,21.59,0,0,1,.81-3.88c.33-1.08.64-2.49,2.16-2.4,1.82.1,1.23,1.63,1.3,2.71,0,.58,0,1.17,0,1.75,1,.13,1.17-.72,1.56-1.25,1-1.28,1.64-3.35,3.44-3,2.35.41.87,2.67,1.25,4.08a.34.34,0,0,0,.22.23A1.27,1.27,0,0,0,84.26,68.21Z"/><path class="cls-4" d="M188.38,70.56,184,67.8c-.21,2.08-.1,3.87-.62,5.47-1,3.12-2.86,5.85-6.65,5.11s-4.2-3.94-4.4-7.22c-.09-1.41,2.79-4-1.07-4.16-2.72-.1-6.06-1.3-7,3.55-1.49,7.92-6,11.4-11.44,9.74-1.27-.39-2.73-.94-2.29-2.66s1.69-1.85,3.16-1.23c3.95,1.68,5.22-.74,6.26-3.87,1-3,2.21-5.8-3.07-6.75,6.29-1.16,6.45-5.4,6.4-10.07a5,5,0,0,0-4.65,3.59,2.22,2.22,0,0,1-3.16,1.48c-1.76-.66-1.18-2.25-.78-3.4.94-2.72,3.18-4.24,5.8-5,6.21-1.87,12.58-1.33,18.91-.8,1.15.1,2.6.44,2.42,2s-1.69,1.29-2.83,1.25c-3.1-.1-6.2-.36-9.3-.31-5.18.08-3.2,4.31-3.73,6.92-.65,3.14,2,2.31,3.48,2.18,3.54-.32,6.88,1,10.58.39C184,63.36,187,66.31,188.38,70.56Z"/><path class="cls-4" d="M233.58,72.48c-.58,3.16-3.23,5-5.74,3.26s-3-.52-4.19,1.06c-1.44,2-3.2,3.13-4.51,0-.75-1.85-1.36-1.57-2.81-.72-6.51,3.83-7.09,3.7-12.22-2-.46-.51-.85-.84-1.44-.56-4.07,1.91-5.63-.6-6.86-4.29-1.07,2.83-2,5.23-2.89,7.62-.32.83-.73,1.73-1.79,1.69a1.85,1.85,0,0,1-1.67-1.8,28.72,28.72,0,0,1,1.86-12.06,1.65,1.65,0,0,1,1.42-.75c1.58.48.59,2,1.15,3.05,1.17-.08,1.35-1.3,2.06-1.91s1.63-1.44,2.73-1.06,1,1.58,1,2.63c-.05,1.37-.95,3.29.87,3.81s3.3-.82,4.22-2.49A10,10,0,0,1,205.94,66c2-2.19,4.45-3.45,6.91-1.17s1.3,4.82-.88,6.81a41.44,41.44,0,0,1-3.57,2.6c5.14,1.43,9.86-1.88,10-6.69,0-1.8-.16-4,2.44-3.72s1.3,2.44,1.35,3.87c.07,1.76,0,3.52,0,6.36,1.47-3.43,2.51-6,3.67-8.53.59-1.26,1.47-2.37,3.1-1.46,1.42.81.76,1.89.34,3-1.92,5.33-1.73,5.61,3.09,5.22A.76.76,0,0,1,233.58,72.48Z"/><path class="cls-4" d="M15.35,80.43c-4.33.1-7.22-.72-9.53-3.12a5.71,5.71,0,0,1-1.27-6.13,2.51,2.51,0,0,1,2.57-2c1.52.17,1,1.53,1,2.46-.25,3,1.18,4.82,4.13,5.2,3.32.43,6.65.28,8.66-3,1.37-2.2.13-4-1.71-5.26-2.32-1.54-4.87-2.74-7.26-4.2-2.61-1.61-4.8-3.6-4.09-7.09C8.49,54,11,52.66,14.05,51.83a10.69,10.69,0,0,1,9.69,1.56,5.38,5.38,0,0,1,1.88,7c-.64,1.45-1.7,3.46-3.4,2.87-2-.7-.39-2.42.06-3.63.85-2.31,0-3.79-2.21-4.43-3-.87-6.14-1-8,1.83-1.48,2.28.6,3.76,2.4,4.86s3.83,2.14,5.75,3.21c3.13,1.75,5.61,4,5.1,8-.55,4.29-3.79,6.06-7.54,7.07A9,9,0,0,1,15.35,80.43Z"/><path class="cls-5" d="M233.58,72.48l-1.19-.13a4.17,4.17,0,0,0,2.08-3,6.51,6.51,0,0,1,2.74-4.39c2-1.42,4.15-1.87,6,0s1.32,4.13-.3,5.91a30.86,30.86,0,0,1-4.06,3.24c3.21,1.41,8.76-1,9.64-4.23.31-1.13.49-2.29.76-3.43s.34-2.61,1.86-2.59c1.82,0,.69,1.92,1.5,2.74,1.3-.08,1.52-1.59,2.53-2.16,1.89-1.07,3.45-.83,3.07,1.6-.73,4.76.8,5.77,4.88,3,.82,3.5-1.36,4.42-3.52,4.87-3.31.71-4.18-1.95-5.17-4.91-.92,2.53-1.53,4.57-2.41,6.49s-1.42,5.26-4.06,1.19c-1.18-1.82-2,0-2.86.33C238.85,80,236,78.89,233.58,72.48Z"/><path class="cls-4" d="M108.73,62.5c3.84-.08,5.46-1.82,5.84-5.06a6,6,0,0,1,1-2.44c1.2-1.87,2-5,5-3.61,2.56,1.16,2.62,4.07,1.45,6.18-2,3.57-1.22,5.24,3.2,5.3-1.46,2.68-3.58,1.6-5.22,1.7-2,.11-3.29,1.09-3.5,2.74-.31,2.39-1.14,5,.63,7.2.88,1.06,2.19.52,3.25-.08,1.51-.84,3-1.72,4.75-2.72.47,5.38-3.94,5.68-6.89,6.64-3.14,1-4.26-1.84-4.88-4.35a15,15,0,0,1-.6-4.77C113,66.14,112.77,63.54,108.73,62.5Z"/><path class="cls-6" d="M130.07,74.6c3.47,1.14,5.5-.47,7.56-1.84.92-.62,1.66-1.18,2.61-.1,1.06,1.23.07,1.84-.73,2.43a24.27,24.27,0,0,1-3.66,2.44c-4,2-7.6,1.12-9.26-2-1.82-3.44-.33-9.14,2.91-11,2-1.14,4.05-1.23,5.62.61s1.14,3.94-.35,5.6A43.83,43.83,0,0,1,130.07,74.6Z"/><path class="cls-7" d="M92.45,23.55c0-5,0-10,0-15,0-3.3,1.3-5.23,5.05-5,5.28.28,10.57-.24,15.86.81,8.57,1.72,11.55,6.11,11,17-.29,6.05-5.54,10.8-12.53,11.32-.88.06-1.77.05-2.65.07-6.55.16-6.94.44-7,7.06,0,2.85-.72,4.35-4,4.38s-5.68-.57-5.75-4.31c-.1-5.43,0-10.87,0-16.3Z"/><path class="cls-7" d="M132.3,39.73c-2.42-1.29-3.23-3.12-1.14-5.2,1.75-1.75,2.94-5.18,6.68-2.37,2.94,2.21,6.32,3.75,10.27,3.25,1.51-.19,3-.19,3.52-2s-.5-3.14-2-4A22.33,22.33,0,0,0,143,27.28c-9.33-1.94-13.71-9.19-10.41-17.1,2-4.79,6.28-6.28,10.87-7.22,6.24-1.27,15.13,2.21,17.25,6.69-3,5.56-3.1,5.63-9.26,3.56a10.59,10.59,0,0,0-5.61-.73c-1,.22-2,.59-2.28,1.78a2.45,2.45,0,0,0,1.21,2.61,9,9,0,0,0,3.57,1.67,37,37,0,0,1,5.43,1.85c7,2.74,9.69,7.64,8.22,15-.89,4.45-7.18,8.87-12.69,9.23C143,45,137.29,43.65,132.3,39.73Z"/><path class="cls-7" d="M169.62,39.59c-2.42-3.75-.68-6.66,5.19-8.64,2.81,1.15,5.19,3.31,8.39,3.5,1.85.11,4.29.74,4.93-1.54s-1.63-3-3.45-3.66l-.84-.14c-1.81-1.34-4-1.7-6.09-2.47-5.75-2.14-8.55-5.79-8.6-11.41a11.71,11.71,0,0,1,8.62-11.89c6.81-2,13.36-1.3,19.28,3L198.73,8c.73,3.18-1.72,4.64-3.51,6.45a9.09,9.09,0,0,1-5.12-.9,8.74,8.74,0,0,0-3.32-1.1c-1.84,0-4.26-.47-4.85,1.89-.53,2.15,1.69,2.89,3.24,3.56,3.34,1.45,7.11,1.82,10.11,4.18a14.24,14.24,0,0,1,4,4c3.33,12-4.79,20.81-17.22,18.71A26.64,26.64,0,0,1,169.62,39.59Z"/><path class="cls-8" d="M132.3,39.73c5.36,2.3,10.5,5,16.74,4.5,9.26-.79,14.94-8.59,11.81-16.84-1.91-5.05-6.75-6.11-11.06-7.81-1.63-.65-3.4-.94-5.06-1.51-1.85-.64-2.95-1.85-2.68-4,.3-2.34,1.94-2.65,3.85-2.64,1.62,0,3.33-.16,4.74.71,4.26,2.6,7.57,1.8,10-2.51-.86,4.5-3.14,6.12-7.3,5.14-1.85-.44-3.64-1.14-5.5-1.49-1.17-.22-2.47.06-2.78,1.51a2.2,2.2,0,0,0,1.62,2.36c2.16.9,4.44,1.52,6.65,2.31,7.8,2.77,10.54,7.68,9.07,16.16-.85,4.83-7.12,9.29-13.29,9.41S136.68,45.38,132.3,39.73Z"/><path class="cls-9" d="M197.05,6.31C191.45,4,185.84,2,179.56,3.49,174,4.8,170,8.93,169.67,14.4S172.33,23.75,178,26c2,.8,4.9.32,5.87,3.14a18.22,18.22,0,0,1-7.94-2.3,12.55,12.55,0,0,1-7.12-14.16c1.07-6,5.54-10.28,12.22-10.77C186.73,1.47,192.82.84,197.05,6.31Z"/><path class="cls-10" d="M198.78,25.64A25.15,25.15,0,0,0,186,19.1,17.8,17.8,0,0,1,182.67,18a3.39,3.39,0,0,1-2.41-4.14c.37-2.06,2-2.16,3.66-2.4,4.22-.58,7.48,2.58,11.47,2.73.27-.4.54-.41.82,0-2.33,1.62-4.68,1-7,0-1.76-.76-4.08-1.95-4.88.44S186.18,17.44,188,18c4.7,1.4,9,3.3,11.8,7.64C199.45,26.09,199.12,26.11,198.78,25.64Z"/><path class="cls-9" d="M198.78,25.64l1,0c1.08,5.45,2.54,10.93-2.58,15.4-5.86,5.13-12.53,5.72-19.65,3.52-3-.93-6.33-1.62-7.9-4.94,3.53.59,6.23,3.13,9.73,3.92a23.69,23.69,0,0,0,10,.35C198,42.09,201,36.14,198.78,25.64Z"/><path class="cls-9" d="M184.68,29.25c3-1.19,4.71.52,5.14,3,.57,3.31-2.46,3.39-4.48,3.36A13.69,13.69,0,0,1,174.81,31c2.69-.32,4.58,1.71,6.93,2.36,1.4.38,3.16.82,4.16-.32C187.24,31.48,185.19,30.5,184.68,29.25Z"/><path class="cls-9" d="M196.21,14.13c-.27,0-.55,0-.82,0,.92-2.17,3.21-3.59,3.34-6.18C200.79,11.2,198.11,12.51,196.21,14.13Z"/><path class="cls-7" d="M2.8,23.74q0-7.5,0-15c0-3.56,1.43-5.37,5.35-5.22,7.33.29,14.8-.7,21.68,2.85,7.59,3.91,10.67,11.78,9.84,19.6-1.21,11.26-8.65,16.09-16,17.4-5.3,1-10.59.53-15.89.75-3.56.15-5.15-1.32-5-4.93C2.9,34,2.79,28.89,2.8,23.74Z"/><path class="cls-7" d="M72.85,6.17c1.22-4.43,4.81-2.36,7.36-2.4,2.79,0,2.32,2.53,2.34,4.36,0,5.73-.37,11.49.15,17.18C83.31,32,78.45,40.72,72,43.16,59.73,47.8,48.15,40.05,48,27.05c-.09-6-.06-12,0-18.07,0-5.44.94-6.13,6.3-4.95.85.18,1.73.25,2.6.38,1.76,6.17.62,12.49.88,18.73a19.58,19.58,0,0,0,1,6.46c1.58,4.06,3.63,5.34,7.74,4.8,3.09-.4,5.17-3.07,5.49-6.92.5-6.26,0-12.53.38-18.79A3.85,3.85,0,0,1,72.85,6.17Z"/><path class="cls-11" d="M72.85,6.17c0,6.74.07,13.47,0,20.21-.06,5.15-2.42,8.58-5.94,9-5.63.63-8.12-1.16-9.33-7.31-1.54-7.82-.19-15.77-.74-23.64C58.5,6.3,58.64,8.61,58.64,11c0,5-.14,10,0,14.94.17,4.5,2.93,7.67,6.26,7.65,4,0,5.63-2.73,6.24-7.85s.08-10.37.32-15.54C71.57,8.71,71.62,7.24,72.85,6.17Z"/><path class="cls-12" d="M32.91,72.07c.45-1.91.42-4.53,3.12-5,1.69-.3,2,1.6,1.9,2.85-.19,2.12-.12,4.83-2.75,5.41C33.4,75.72,33,73.82,32.91,72.07Z"/><path class="cls-13" d="M65.89,65.08C66.39,60.63,67,56.57,70,53,70.61,57,69.21,61,65.89,65.08Z"/><path class="cls-14" d="M103.13,66.66c-.64,2.74-1,4.6-1.52,6.4-.34,1.08-.87,2.54-2.36,2s-.91-2-.69-3.08A6.8,6.8,0,0,1,103.13,66.66Z"/><path class="cls-12" d="M180.94,70.16c-.63,2-.25,4.81-3,5.19-1.69.23-2.26-1.7-2-3.25.31-2.12.44-4.72,3.22-5C180.77,66.91,180.65,68.84,180.94,70.16Z"/><path class="cls-15" d="M207.92,71.07c-.34-2.28.18-3.66,2.14-4.08a1,1,0,0,1,1.18,1C211.21,70,209.87,70.69,207.92,71.07Z"/><path class="cls-15" d="M238.93,70.94c-.83.17-1-.39-1-1A2.71,2.71,0,0,1,240.05,67a1.05,1.05,0,0,1,1.39,1.19C241.34,69.74,240.25,70.46,238.93,70.94Z"/><path class="cls-16" d="M116.15,62.13c.9-3.44,1-5.88,3-7.78C120.08,57.72,119.92,58.19,116.15,62.13Z"/><path class="cls-15" d="M129.82,71.06c-.34-2.27.19-3.64,2.13-4.06a.94.94,0,0,1,1.18,1C133.1,70,131.76,70.68,129.82,71.06Z"/><path class="cls-17" d="M102.23,17.43c.48-1.81-1.83-6,3.65-5.91,6.12.07,9.63,2.53,9.5,6.79-.12,4.08-3.18,6.05-8.27,6.54C101.21,25.42,102,21.77,102.23,17.43Z"/><path class="cls-18" d="M12.48,23.83a12.83,12.83,0,0,1,.06-3.51c.77-2.64-2.23-6.66,2.12-7.88,6.17-1.71,12.52,1,14.41,5.65,2,4.8,1.86,9.64-1.38,13.76s-8.34,3.65-13.08,3.47c-1.82-.07-2.11-1.24-2.1-2.7V23.83Z"/><path class="cls-19" d="M103,17.81c-.21-3.45,2.11-4.51,5-4.5a5.19,5.19,0,0,1,5.54,5.07c.24,2.25-3.45,5.63-6,5.34C104.27,23.35,102.9,21.13,103,17.81Z"/><path class="cls-20" d="M14.77,28.23c-.78-2.38-.53-5.45-.51-8.51,0-4.76,2-6.38,6.64-5.53,4.32.79,8,6,7.53,10.54a9.56,9.56,0,0,1-9.33,8.83C15.93,33.55,13.91,32.54,14.77,28.23Z"/></g></g></svg>