<svg xmlns="http://www.w3.org/2000/svg" viewBox="0 0 488.08 88.86"><defs><style>.cls-1{fill:#e13b48;}.cls-2{fill:#babcbe;}.cls-3{fill:#f3f2f3;}.cls-4{fill:#f5f4f5;}.cls-5{fill:#e13c49;}.cls-6{fill:#e13d4a;}.cls-7{fill:#e23e4b;}.cls-8{fill:#e2404c;}.cls-9{fill:#bcbec0;}.cls-10{fill:#fdfbfb;}.cls-11{fill:#fdf9fa;}.cls-12{fill:#c2c2c2;}.cls-13{fill:#b8b1b7;}.cls-14{fill:#eceaec;}.cls-15{fill:#eeecee;}.cls-16{fill:#f0eef0;}.cls-17{fill:#ebe9ea;}.cls-18{fill:#fcf1f2;}.cls-19{fill:#f9dee0;}.cls-20{fill:#fdf6f6;}.cls-21{fill:#fbe9ea;}.cls-22{fill:#f4d5d7;}.cls-23{fill:#e2dfe1;}.cls-24{fill:#e8e5e7;}.cls-25{fill:#f8f7f8;}.cls-26{fill:#fcfcfc;}</style></defs><g id="Layer_2" data-name="Layer 2"><g id="Layer_1-2" data-name="Layer 1"><path class="cls-1" d="M115.85,67.62c2.6-2.12,2.42-5.08.23-6.58-7.58-5.19-10.37-12.84-12.17-21.43-3,2.46-4.81,1.86-5.27-2-.28-2.41-1.87-3-4.13-2.84-4,.21-8-.07-11.4-2.62-2.38-1.79-4-4.18-3.48-7.15.47-2.75,3.21-2.52,5.34-3,3.16-.68,5.78-1.91,6.52-5.62.62-3.09,3.51-3.36,6-3.55A16.61,16.61,0,0,1,114.74,24c1.3,3.73,3.32,6,7.43,6.43A10.26,10.26,0,0,1,126.75,32c7.76,5.19,16.49,4.9,25.21,4.56,7.58-.29,15-.26,21.87,3.81,2.77,1.63,6.45-.16,10.17,1.81-1.32-5.43-2.08-10.2,1.14-14.4.85-1.1,1.4-3.11,3.14-2.64s1.2,2.44,1.15,3.82a26,26,0,0,0,1.84,11.21c1,2.41,1.44,4.81-.64,7-2.27,2.35-4.82,3.71-8.3,2.94-1.08-.24-2.61-2-3.39-.19-.71,1.64-1,3.75,1.14,5.09,5.83,3.68,8.09,9.48,9.43,15.82.09,4.11-1.88,5.83-6.64,5.78-4.23,0-5.15-1.13-4.82-5.72.17-.53.39-1,.55-1.59.36-1.19.38-2.36-1-2.83s-2,.68-2.35,1.79a9.37,9.37,0,0,1-.85,1.95c-2.29,2.56-5.43,2.62-8.46,2.64-2.54,0-4-1.45-4.2-4.06-.08-2.46,1.81-3.86,3.61-6.21-5.82,1-11.21.12-16.35,1.83a41.6,41.6,0,0,1-13,2.49c-1.56,0-3,.18-3.14,2.21-.83,4-3.19,6.45-7.26,7.19-4.24.77-8,.47-11-3.36C112.72,70.37,112.71,68.75,115.85,67.62Z"/><path d="M25.19,80.56c2.52,3.11,6.18,3.2,9.67,3.35,4.62.2,9.26,0,14.47,0-9.62,8.44-25.39,5.49-31.15-5.19-2.22-3.12-.84-5.62,1.4-8,2.11-3.15,1-6.57.62-9.83-1.05-8.16-1.14-16.08,2.9-23.65,2.6-4.87,6-8.68,11.33-10.53,4.89-1.69,8.68-4,8.52-10.19-.09-3.29,2.27-5.94,4.51-8.35,2-2.16,4-4.36,5.93-6.54.65-.72.92-2,2.29-1.64A2,2,0,0,1,57,2.57C56.23,6.15,58,8,61.09,9.24a11.26,11.26,0,0,1,3,2.54c3.52,3.4,3.64,4.56-.34,7.59-2.63,2-3.29,4-2.57,7.16a19.94,19.94,0,0,1-3.1,16.76c-4.89,7-2.8,15-2.38,22.74.1,2,2.48,1.68,3.86,2.34,1,4.38-1.38,6.54-6,6.93-8.73.73-17.4,1.59-26.19,1C24.61,76.08,25.32,78.8,25.19,80.56Z"/><path class="cls-2" d="M25.19,80.56a4.41,4.41,0,0,1-1-5.16c.93-1.67,3-.39,4.47-.42,7.23-.14,14.66,2.16,21.57-1.77.64-.37,1.05,0,1.6.16,5.78,1.62,6.55,1.12,7.79-5l11.56-.19c.65,2.46,2.16,3.37,4.79,3.31,6.79-.17,13.6-.27,20.38,0,3.35.14,4.76-1.16,5.18-4.17l14.36.27c-1.87,2.1-.23,6.54,2.85,7.73,5.36,2.08,11.74-1.44,13.09-7.21.35-.25.68-.65,1.1-.68,9.87-.56,19.76-1.7,29.55.82.13,3.39,2.26,4.32,5.05,3.49,2.25-.67,5-.24,6.62-2.65,2-1.34,3.71-.73,5.31.75.07,1.89-2.46,4.33,1.07,5.5,3.89,1.29,7.41-.55,9-4.62,7.7.19,15.31.91,22.56,4-5.32,3.37-11.28,3.52-17,4-45,4.05-90.2,2.84-135.33,2.6-10,0-20-1.09-30-1.57C28.24,79.7,26.48,79,25.19,80.56Z"/><path class="cls-3" d="M314.5,24.54c0-4.85,0-9.71,0-14.56.06-5.27,2.65-8,7.83-8s10.55-.39,15.87.66c5.12,1,9.06,3.22,11.91,7.48,1.59,2.38,2.91,3.11,4.73,0C361.45-1,374.38-.65,384,4.81c4.55,2.58,4.8,8.16.26,11.73-2.71,2.13-2.67,3.59-.31,5.47a16,16,0,0,1,6,10.42c.47,3,1.61,2.47,3.44.86,3.41-3,4.64-5.16.82-9.51-5.73-6.51-1.52-17.59,7-21C408.24,0,415,1,421.52,4.49,426.15,7,427,11.85,423,15.27c-3.56,3.1-3.13,5.28.24,8,5,4.08,5.45,9.42,3.34,15.08a15.21,15.21,0,0,1-13.68,9.55c-8.38.24-16.26-.71-21.51-8.42-1.31-1.93-2.44-.83-3.51.35-8.18,9.08-19.56,10.79-29.95,4.51-5.51-3.34-6.09-8.74-1.2-13,1.35-1.16,2.56-1.95,1.6-3.92a9.45,9.45,0,0,0-4.44-4.73c-1.24-.55-1.63,1-1.91,1.92-2.54,7.89-8.27,11.33-16.24,11.81-3.29.2-5.31,1.8-6.1,5.21-1.09,4.69-4,6.62-8.6,6.22-4.13-.37-6.4-3-6.54-7.92C314.39,34.84,314.5,29.69,314.5,24.54Z"/><path class="cls-4" d="M268.14,19.84c1.7-3.47,1-6.29,1.07-9,.21-6.38,2.57-9,8.33-8.86,5.41.1,7.66,2.72,7.67,9,0,4.71.07,9.42,0,14.13a13.16,13.16,0,0,0,1.25,5.53,3.8,3.8,0,0,0,3.95,2.27,3.22,3.22,0,0,0,3.17-2.59A24.1,24.1,0,0,0,295,23c-.08-4.71-.07-9.42,0-14.13.06-4.46,2.63-6.86,7.24-6.91,5.41-.06,7.75,1.85,7.81,6.67.09,7.36.29,14.73-.05,22.07-.36,7.63-4.8,12.73-11.56,15.9s-13.52,2.51-19.72-1.36a17.74,17.74,0,0,1-8.64-12.67c-.17-1.11-.34-2.63-1.77-2.67-1.16,0-1.37,1.36-1.65,2.31-3.19,10.77-13,15.92-23.47,15.7-3.69-.07-7.39,0-11.09,0-4.2,0-7.11-2.48-7.17-6.62q-.22-16.33,0-32.67c.06-4.14,3-6.6,7.17-6.63,4.43,0,8.88-.27,13.3,0,8.75.62,15.93,4,19.9,12.38C266,16,266.9,17.49,268.14,19.84Z"/><path class="cls-5" d="M309.07,69.32a2.36,2.36,0,0,1,.26-.36c1.37-1.38,1.93-4.55,4.27-3.73s.69,3.62.89,5.54c.17,1.65-1.09,4.23.77,4.71s3.62-1.67,4.47-3.56A14.65,14.65,0,0,1,324.2,66c2.14-1.65,4.19-.84,6.16.16s.75,2.85.83,4.34a3.39,3.39,0,0,1-.08.44c-.27,1.65-1.6,3.87.18,4.79s2.55-1.9,4.11-2.58c1.39,2,.72,3.56-1,4.88s-3.44,2.65-5.46.67c-.95-.93-1.62-.85-2.65-.16-2.18,1.46-4.42,1.83-6.29-.5-.8-1-1.35-.53-2.21-.15-6,2.69-6.39,2.44-6.73-4.3a12.31,12.31,0,0,0-.34-1.48c-.92,2.12-1.64,3.77-2.33,5.43-.48,1.16-1.15,2.28-2.53,2s-1.3-1.78-1.31-2.92c0-1.31.15-2.63.25-4.38-1.67,1.16-1.78,2.87-2.64,4.07-1.22,1.7-1.61,5.89-4.86,1.42-.76-1-2,.56-3,1-2.3,1-4.59,1.87-6-1.15-.91-2-1.74-.53-2.66-.15-2.64,1.08-5.17,4.12-8,.2-.8-1.08-1.46.32-2.1.74-1.24.81-2.52,1.87-4.05,1.1-1.77-.88-1.7-2.75-1.38-4.3.71-3.36-1.33-4.73-4.26-6.42-.15,3,.19,5.64-1.41,7.87-1.37,1.91-3,3.35-5.5,3s-3.81-2.14-4.29-4.47c-.71-3.42,0-6.53,2.84-8.71s5.79-2,8.71-.24c1.48.91,2.82,2.06,4.35,3.21a8,8,0,0,0,.5-1.12c.44-1.59,1-3.6,2.94-3.18,2.12.46.52,2.47.65,3.78a11.76,11.76,0,0,1-.25,2.18c-.19,1.65-1.6,4.36.17,4.67,2.62.44,2.09-2.77,2.88-4.5,1-2.13-.54-6.71,3.25-5.93,2.84.59.49,4.27.45,6.58,0,1.45-1.21,4,.78,4,2.28.07,5.06-1.18,5-4.43A33,33,0,0,1,291,55c1.31-2.41,3.08-5.86,6.11-4.6s1.53,4.9.88,7.49c-1.07,4.32-3.55,8-5.58,11.95-.87,1.68-2,3.36-1,5.38a.92.92,0,0,0,1.49.3c1.77-1.3,4.67-1.29,5-4.32a20.73,20.73,0,0,1,.8-3.88c.34-1.09.64-2.49,2.16-2.4,1.83.1,1.23,1.63,1.3,2.71,0,.58,0,1.17,0,1.75,1,.13,1.17-.72,1.57-1.25.94-1.28,1.64-3.35,3.43-3,2.36.41.88,2.67,1.25,4.08,0,.09.14.22.22.23A1.35,1.35,0,0,0,309.07,69.32Z"/><path class="cls-6" d="M413.18,71.67l-4.39-2.76c-.21,2.08-.1,3.87-.61,5.47-1,3.12-2.86,5.85-6.65,5.11s-4.21-3.94-4.41-7.22c-.09-1.41,2.79-4-1.06-4.16-2.73-.1-6.06-1.3-7,3.55-1.48,7.91-6,11.4-11.44,9.73-1.27-.38-2.72-.93-2.29-2.65s1.7-1.85,3.16-1.23c3.95,1.68,5.23-.74,6.27-3.87,1-3,2.21-5.8-3.08-6.75,6.29-1.16,6.45-5.4,6.4-10.07a5,5,0,0,0-4.64,3.58,2.23,2.23,0,0,1-3.17,1.49c-1.76-.66-1.18-2.25-.78-3.4.94-2.72,3.18-4.24,5.8-5,6.22-1.87,12.58-1.33,18.92-.8,1.14.1,2.6.44,2.41,2s-1.68,1.29-2.82,1.25c-3.11-.1-6.21-.36-9.31-.31-5.18.08-3.19,4.31-3.73,6.92-.64,3.14,2,2.31,3.48,2.18,3.54-.32,6.88,1,10.59.39C408.77,64.47,411.84,67.42,413.18,71.67Z"/><path class="cls-6" d="M458.38,73.59c-.58,3.16-3.23,5-5.74,3.26s-3-.52-4.19,1.06c-1.44,2-3.2,3.13-4.51,0-.75-1.85-1.36-1.57-2.81-.72-6.51,3.83-7.09,3.7-12.22-2-.46-.51-.85-.84-1.44-.56-4.06,1.91-5.62-.6-6.86-4.29-1.07,2.83-2,5.23-2.89,7.62-.32.83-.73,1.73-1.78,1.69a1.84,1.84,0,0,1-1.67-1.8,28.72,28.72,0,0,1,1.85-12.06,1.65,1.65,0,0,1,1.42-.75c1.59.48.6,2,1.15,3.05,1.17-.08,1.35-1.3,2.07-1.91s1.63-1.44,2.72-1.06,1,1.58,1,2.63c-.05,1.37-.95,3.29.88,3.81s3.29-.82,4.22-2.49a9.08,9.08,0,0,1,1.16-1.86c2-2.19,4.45-3.45,6.91-1.18s1.29,4.83-.89,6.82a38.54,38.54,0,0,1-3.57,2.6c5.14,1.43,9.86-1.88,10-6.69.05-1.8-.16-4,2.45-3.72s1.3,2.44,1.35,3.87c.06,1.76,0,3.52,0,6.36,1.47-3.43,2.51-6,3.68-8.53.58-1.26,1.46-2.37,3.09-1.46,1.43.81.76,1.89.35,3-1.93,5.33-1.73,5.61,3.08,5.22A.76.76,0,0,1,458.38,73.59Z"/><path d="M101.49,67.35c2.05,5.41,2.05,5.41-4,5.41H70c-.62-1.87,1-3,1.14-4.58,1.06-4.85,4.19-6,8.86-5.53a69.44,69.44,0,0,0,13.6,0C97.69,62.25,100.24,63.48,101.49,67.35Z"/><path class="cls-6" d="M240.16,81.54c-4.33.1-7.22-.72-9.54-3.12a5.71,5.71,0,0,1-1.27-6.13,2.53,2.53,0,0,1,2.57-2c1.52.17,1,1.53,1,2.46-.25,3,1.17,4.82,4.12,5.2,3.32.43,6.65.28,8.66-3,1.37-2.2.13-4-1.7-5.26-2.33-1.55-4.88-2.74-7.26-4.21-2.62-1.6-4.81-3.59-4.09-7.08.68-3.33,3.23-4.64,6.25-5.47a10.67,10.67,0,0,1,9.68,1.56,5.39,5.39,0,0,1,1.89,7C249.79,63,248.73,65,247,64.4c-2-.7-.38-2.42.06-3.63.85-2.31,0-3.79-2.21-4.43-3-.87-6.14-1.05-8,1.83-1.47,2.28.61,3.76,2.4,4.86s3.84,2.14,5.75,3.21c3.13,1.75,5.61,4,5.1,8-.55,4.29-3.79,6.06-7.53,7.07A9,9,0,0,1,240.16,81.54Z"/><path class="cls-7" d="M458.38,73.59l-1.19-.13a4.17,4.17,0,0,0,2.08-3A6.55,6.55,0,0,1,462,66c2-1.42,4.16-1.87,6,0s1.31,4.13-.31,5.91a30.21,30.21,0,0,1-4.06,3.24c3.21,1.41,8.76-1,9.65-4.23.31-1.13.49-2.29.75-3.43S474.4,65,475.92,65c1.82,0,.7,1.92,1.5,2.74,1.3-.08,1.52-1.59,2.53-2.16,1.9-1.07,3.45-.83,3.08,1.6-.74,4.75.79,5.77,4.87,3,.82,3.5-1.36,4.42-3.52,4.87-3.3.71-4.18-1.95-5.16-4.91-.93,2.53-1.54,4.57-2.42,6.49s-1.41,5.26-4.06,1.19c-1.18-1.82-2,0-2.85.33C463.65,81.1,460.8,80,458.38,73.59Z"/><path class="cls-6" d="M333.53,63.61c3.84-.08,5.46-1.82,5.84-5.06a5.94,5.94,0,0,1,1-2.44c1.21-1.87,2-5,5.05-3.61,2.56,1.16,2.63,4.07,1.45,6.18-2,3.57-1.21,5.24,3.2,5.3-1.45,2.68-3.58,1.6-5.22,1.7-2,.11-3.29,1.09-3.5,2.74-.3,2.39-1.14,5,.64,7.2.87,1.06,2.18.52,3.25-.08,1.51-.84,3-1.72,4.74-2.72.47,5.38-3.93,5.68-6.89,6.64-3.13,1-4.25-1.84-4.88-4.36a15.14,15.14,0,0,1-.59-4.76C337.84,67.25,337.57,64.65,333.53,63.61Z"/><path class="cls-8" d="M354.87,75.71c3.47,1.14,5.51-.47,7.56-1.84.92-.62,1.66-1.18,2.61-.1,1.07,1.23.07,1.84-.73,2.43a23.78,23.78,0,0,1-3.66,2.44c-4,2-7.6,1.12-9.26-2-1.82-3.44-.32-9.14,2.92-11,2-1.14,4-1.23,5.62.61s1.14,3.94-.36,5.6A41.92,41.92,0,0,1,354.87,75.71Z"/><path class="cls-9" d="M19.58,70.8a18.61,18.61,0,0,0-1.4,8A79,79,0,0,1,2.51,76.43C1.55,76.19.1,76.18,0,75-.11,73.51,1.5,73.25,2.53,73A91.44,91.44,0,0,1,19.58,70.8Z"/><path class="cls-10" d="M162.44,68.28c-2.28,1.53-4.57,0-6.85,0-7.94.11-15.87-.06-23.8-.12a2,2,0,0,1,2.28-2.52c10.1.31,19.38-5.07,29.55-4.14,1.33.12,3.22-1.29,3.86.6.5,1.46-1.51,1.88-2.43,2.74A8.17,8.17,0,0,0,162.44,68.28Z"/><path class="cls-11" d="M179.42,69.87l-5.31-.75c.26-1.64-.08-3.66,1.93-4.4,1.5-.55,2.77.28,3.78,1.44C181,67.54,180.58,68.74,179.42,69.87Z"/><path class="cls-12" d="M47.79,66.67c.15,1.16,1.7,2.15.3,3.24a2.09,2.09,0,0,1-1.92-.42C45.68,68.15,46.27,67.14,47.79,66.67Z"/><path class="cls-13" d="M317.25,24.66c0-5,0-10,0-15,0-3.3,1.31-5.23,5.06-5,5.28.28,10.57-.24,15.85.81,8.57,1.72,11.55,6.11,11,17-.29,6-5.54,10.8-12.54,11.32-.88.06-1.77.05-2.65.07-6.55.16-6.93.44-7,7.06,0,2.85-.72,4.35-3.95,4.38s-5.69-.57-5.76-4.31c-.1-5.43,0-10.87,0-16.3Z"/><path class="cls-13" d="M357.1,40.84c-2.42-1.29-3.22-3.12-1.13-5.2,1.75-1.75,2.93-5.18,6.68-2.37,2.93,2.21,6.32,3.75,10.27,3.25,1.5-.19,3-.19,3.52-2s-.51-3.14-2-4a22.37,22.37,0,0,0-6.67-2.15c-9.34-1.94-13.72-9.2-10.42-17.1,2-4.79,6.29-6.28,10.87-7.22,6.25-1.27,15.13,2.21,17.26,6.69-3,5.56-3.11,5.63-9.27,3.55a10.69,10.69,0,0,0-5.61-.72c-1,.22-2,.59-2.27,1.78a2.43,2.43,0,0,0,1.2,2.61,9,9,0,0,0,3.57,1.67,36.56,36.56,0,0,1,5.43,1.85c7,2.74,9.7,7.64,8.23,15-.89,4.45-7.19,8.87-12.69,9.23C367.77,46.15,362.09,44.76,357.1,40.84Z"/><path class="cls-13" d="M394.43,40.69C392,37,393.75,34,399.61,32.06c2.81,1.15,5.2,3.31,8.39,3.5,1.85.11,4.29.74,4.93-1.54s-1.63-3-3.44-3.66l-.84-.14c-1.82-1.34-4-1.7-6.1-2.47C396.81,25.61,394,22,394,16.34a11.72,11.72,0,0,1,8.63-11.89c6.8-2,13.36-1.3,19.27,3l1.68,1.66c.73,3.18-1.71,4.64-3.51,6.45a9,9,0,0,1-5.11-.9,8.79,8.79,0,0,0-3.33-1.1c-1.84,0-4.26-.47-4.84,1.89-.54,2.15,1.68,2.89,3.24,3.56,3.34,1.45,7.1,1.82,10.11,4.18a14.34,14.34,0,0,1,4,4c3.34,12-4.79,20.81-17.22,18.71A26.47,26.47,0,0,1,394.43,40.69Z"/><path class="cls-14" d="M357.1,40.84c5.36,2.3,10.5,5,16.74,4.5,9.26-.8,14.94-8.59,11.82-16.84-1.91-5.05-6.75-6.11-11.07-7.81-1.63-.65-3.39-.94-5-1.51-1.86-.64-3-1.85-2.69-4,.3-2.35,1.94-2.65,3.85-2.64,1.63,0,3.33-.16,4.75.71,4.26,2.6,7.56,1.8,10-2.51-.87,4.5-3.14,6.12-7.3,5.14-1.85-.44-3.64-1.14-5.5-1.49-1.17-.22-2.48.06-2.79,1.51a2.2,2.2,0,0,0,1.62,2.36c2.16.9,4.44,1.52,6.65,2.31,7.8,2.77,10.55,7.68,9.07,16.16-.84,4.83-7.12,9.29-13.29,9.41S361.48,46.49,357.1,40.84Z"/><path class="cls-15" d="M421.85,7.42c-5.6-2.33-11.21-4.28-17.48-2.82-5.62,1.31-9.55,5.44-9.9,10.91s2.66,9.35,8.3,11.57c2,.8,4.9.32,5.88,3.14a18.22,18.22,0,0,1-7.95-2.3,12.57,12.57,0,0,1-7.12-14.16c1.07-6,5.54-10.28,12.22-10.77C411.54,2.58,417.62,2,421.85,7.42Z"/><path class="cls-16" d="M423.58,26.75a25.11,25.11,0,0,0-12.77-6.54,18.72,18.72,0,0,1-3.33-1.14,3.38,3.38,0,0,1-2.41-4.14c.37-2.06,1.95-2.16,3.66-2.4,4.22-.58,7.47,2.58,11.47,2.73.26-.4.53-.41.81,0-2.33,1.62-4.68,1-7,0-1.77-.75-4.08-1.94-4.88.45s1.86,2.84,3.64,3.37c4.69,1.4,9,3.3,11.8,7.64C424.25,27.2,423.92,27.22,423.58,26.75Z"/><path class="cls-15" d="M423.58,26.75l1,0c1.07,5.45,2.53,10.93-2.58,15.4-5.87,5.13-12.54,5.71-19.65,3.52-3-.93-6.33-1.62-7.9-4.94,3.52.59,6.22,3.13,9.72,3.92A23.74,23.74,0,0,0,414.2,45C422.82,43.2,425.8,37.25,423.58,26.75Z"/><path class="cls-15" d="M409.49,30.36c3-1.19,4.7.52,5.13,3,.58,3.31-2.46,3.39-4.48,3.36a13.72,13.72,0,0,1-10.53-4.67c2.7-.32,4.59,1.71,6.94,2.36,1.39.38,3.15.82,4.16-.32C412.05,32.59,410,31.61,409.49,30.36Z"/><path class="cls-15" d="M421,15.24c-.27,0-.54,0-.81,0,.91-2.17,3.21-3.59,3.33-6.18C425.59,12.31,422.91,13.62,421,15.24Z"/><path class="cls-13" d="M227.6,24.85c0-5,0-10,0-15,0-3.56,1.43-5.37,5.35-5.22,7.33.29,14.79-.7,21.68,2.85,7.58,3.91,10.66,11.78,9.83,19.6-1.2,11.26-8.65,16.09-16,17.4-5.3,1-10.59.53-15.88.75-3.57.15-5.15-1.32-5.06-4.93C227.7,35.15,227.6,30,227.6,24.85Z"/><path class="cls-13" d="M297.65,7.28c1.22-4.43,4.81-2.36,7.37-2.4,2.79,0,2.31,2.53,2.33,4.36.06,5.73-.37,11.49.15,17.18.61,6.69-4.24,15.41-10.71,17.85-12.26,4.64-23.83-3.11-24-16.11-.09-6-.06-12,0-18.07,0-5.44.93-6.13,6.29-4.95.86.18,1.74.25,2.61.38,1.76,6.17.61,12.49.87,18.73a19.58,19.58,0,0,0,1,6.46c1.59,4.06,3.64,5.34,7.74,4.8,3.09-.4,5.18-3.07,5.49-6.92.51-6.26,0-12.53.39-18.79C297.19,9,297,8,297.65,7.28Z"/><path class="cls-17" d="M297.65,7.28c0,6.74.07,13.47,0,20.21-.06,5.15-2.42,8.58-5.94,9-5.64.63-8.12-1.16-9.33-7.31-1.55-7.82-.2-15.77-.74-23.64,1.66,1.89,1.81,4.2,1.8,6.55,0,5-.13,10,.05,14.94.16,4.5,2.92,7.67,6.25,7.65,4,0,5.64-2.73,6.25-7.85s.07-10.37.31-15.54C296.37,9.82,296.43,8.35,297.65,7.28Z"/><path class="cls-18" d="M257.71,73.18c.46-1.91.43-4.53,3.12-5,1.7-.3,2,1.6,1.9,2.84-.18,2.13-.11,4.84-2.75,5.42C258.2,76.83,257.81,74.93,257.71,73.18Z"/><path class="cls-19" d="M290.69,66.19c.5-4.45,1.13-8.51,4.14-12.12C295.41,58.1,294,62.14,290.69,66.19Z"/><path class="cls-20" d="M327.93,67.76c-.64,2.75-1,4.61-1.52,6.4-.33,1.09-.87,2.55-2.36,2s-.91-2-.68-3.08A6.81,6.81,0,0,1,327.93,67.76Z"/><path class="cls-18" d="M405.74,71.27c-.63,2-.25,4.8-3,5.19-1.68.23-2.26-1.7-2-3.25.31-2.12.44-4.72,3.21-5C405.57,68,405.46,70,405.74,71.27Z"/><path class="cls-21" d="M432.72,72.18c-.33-2.28.18-3.66,2.14-4.08a1,1,0,0,1,1.19,1C436,71.08,434.67,71.8,432.72,72.18Z"/><path class="cls-21" d="M463.74,72.05c-.84.17-1-.39-1-1a2.72,2.72,0,0,1,2.12-2.94,1,1,0,0,1,1.38,1.19C466.14,70.85,465.05,71.57,463.74,72.05Z"/><path class="cls-22" d="M341,63.24c.91-3.44,1-5.88,3-7.78C344.88,58.83,344.73,59.29,341,63.24Z"/><path class="cls-21" d="M354.63,72.17c-.34-2.27.18-3.64,2.13-4.06a.94.94,0,0,1,1.18,1C357.9,71.07,356.56,71.79,354.63,72.17Z"/><path class="cls-23" d="M327,18.54c.48-1.81-1.82-6,3.65-5.91,6.13.07,9.63,2.53,9.5,6.79-.12,4.08-3.18,6-8.26,6.54C326,26.52,326.75,22.88,327,18.54Z"/><path class="cls-24" d="M237.29,24.94a12.84,12.84,0,0,1,.05-3.51c.77-2.64-2.22-6.66,2.13-7.88,6.16-1.72,12.51,1,14.41,5.65,2,4.8,1.85,9.64-1.39,13.76s-8.34,3.65-13.07,3.47c-1.82-.07-2.11-1.24-2.11-2.7,0-2.93,0-5.86,0-8.79Z"/><path class="cls-25" d="M327.83,18.92c-.21-3.45,2.11-4.51,5-4.5a5.2,5.2,0,0,1,5.55,5.07c.24,2.25-3.46,5.63-6,5.34C329.07,24.46,327.7,22.24,327.83,18.92Z"/><path class="cls-26" d="M239.58,29.34c-.78-2.38-.53-5.45-.51-8.51,0-4.76,2-6.38,6.63-5.53,4.32.79,8,5.95,7.53,10.54a9.56,9.56,0,0,1-9.33,8.83C240.74,34.66,238.71,33.65,239.58,29.34Z"/></g></g></svg>