<?xml version="1.0" encoding="utf-8"?>
<!-- Generator: Adobe Illustrator 25.2.1, SVG Export Plug-In . SVG Version: 6.00 Build 0)  -->
<svg version="1.1" id="Layer_1" xmlns="http://www.w3.org/2000/svg" xmlns:xlink="http://www.w3.org/1999/xlink" x="0px" y="0px"
	 viewBox="0 0 34 34" style="enable-background:new 0 0 34 34;" xml:space="preserve">
<style type="text/css">
	.st0{fill:#FFFFFF;}
	.st1{fill:#ED1A3C;}
</style>
<path class="st0" d="M16.7,32.8c-1.7,0-2.9-0.6-4-1.7l-9.8-9.8c-1.2-1.2-1.7-2.9-1.7-4.6s0.6-2.9,1.7-4l9.8-9.8
	c1.2-1.2,2.9-1.7,4-1.7c1.7,0,2.9,0.6,4,1.7l9.8,9.8c1.2,1.2,1.7,2.9,1.7,4s0,3.5-1.2,4.6l-9.8,9.8C20.2,32.3,18.4,32.8,16.7,32.8z"
	/>
<path class="st1" d="M16.7,1.7c-1.2,0-2.9,0.6-3.5,1.7l-9.8,9.8c-1.2,1.2-1.7,2.3-1.7,3.5s0.6,2.9,1.7,3.5l9.8,9.8
	c1.2,1.2,2.3,1.7,3.5,1.7s2.9-0.6,3.5-1.7l9.8-9.8c1.2-1.2,1.7-2.3,1.7-3.5s0-2.3-1.2-3.5l-9.8-9.8C19.6,2.3,18.4,1.7,16.7,1.7
	 M16.7,0c1.7,0,3.5,0.6,5.2,2.3l9.8,9.8c2.9,2.9,2.9,6.9,0,9.8l-9.8,9.8C20.7,33.4,19,34,16.7,34c-1.7,0-3.5-0.6-5.2-2.3l-9.2-9.8
	c-2.9-2.9-2.9-6.9,0-9.8l9.8-9.8C13.3,0.6,15,0,16.7,0z"/>
<path id="_" class="st1" d="M22.5,20.7C22.5,20.2,22.5,20.2,22.5,20.7c0-0.6-0.6-0.6-0.6-0.6c-0.6,0-1.2-0.6-1.2-0.6L20.2,19
	c-0.6,0-1.2,1.7-1.7,1.7c0,0-0.6,0-0.6-0.6c-1.7-1.2-2.9-2.3-4-3.5c0,0,0-0.6-0.6-0.6c0-0.6,1.7-1.2,1.7-1.7c0,0,0-0.6-0.6-0.6
	c0-0.6-0.6-1.2-0.6-1.2s0-0.6-0.6-0.6l0,0c-0.6,0-0.6,0-1.2,0c0-0.6-0.6,0-0.6,0.6c0,0.6-0.6,1.2-0.6,1.7c0,0.6,0,1.7,0.6,2.3
	c0,0,0.6,0.6,0.6,1.2c1.2,1.7,2.3,2.9,4,4c0.6,0,1.2,0.6,1.7,0.6c0.6,0,1.2,0.6,2.3,0.6c0.6,0,1.2,0,1.7-0.6c0.6,0,0.6-0.6,1.2-1.2
	C22.5,21.3,22.5,20.7,22.5,20.7z"/>
</svg>
