<?xml version="1.0" encoding="utf-8"?>
<!-- Generator: Adobe Illustrator 25.2.1, SVG Export Plug-In . SVG Version: 6.00 Build 0)  -->
<svg version="1.1" id="Layer_1" xmlns="http://www.w3.org/2000/svg" xmlns:xlink="http://www.w3.org/1999/xlink" x="0px" y="0px"
	 viewBox="0 0 23.6 23.6" style="enable-background:new 0 0 23.6 23.6;" xml:space="preserve">
<style type="text/css">
	.st0{fill:#E13B48;}
</style>
<path id="_" class="st0" d="M23.6,18.6c0-0.1,0-0.2,0-0.4c-0.1-0.4-0.9-0.7-1.3-0.9c-1-0.5-1.9-1.1-2.9-1.6c-0.4-0.3-1-0.8-1.5-0.8
	c-1,0-2.5,3-3.4,3c-0.5-0.1-1-0.3-1.4-0.7c-2.9-1.6-5.3-3.9-6.8-6.8c-0.3-0.4-0.5-0.9-0.7-1.4c0-0.9,3-2.4,3-3.4
	c0-0.5-0.5-1.1-0.8-1.5C7.2,3.2,6.7,2.3,6.2,1.3C6,1,5.7,0.2,5.3,0C5.2,0,5.1,0,5,0C4.2,0,3.4,0.2,2.6,0.5C1.8,1,1.2,1.7,0.9,2.6
	C0.3,3.5,0,4.6,0,5.7c0.1,1.5,0.5,3,1.2,4.4c0.4,1,0.8,2,1.4,2.9c2.1,3.2,4.8,5.9,8,8c0.9,0.6,1.9,1,2.9,1.4c1.4,0.6,2.9,1,4.4,1.2
	c1.1,0,2.2-0.3,3.1-0.9c0.8-0.4,1.6-1,2-1.8C23.3,20.2,23.5,19.4,23.6,18.6z"/>
</svg>
